<?xml version="1.0" encoding="utf-8"?>
<!-- Generated by IcoMoon.io -->
<!DOCTYPE svg PUBLIC "-//W3C//DTD SVG 1.1//EN" "http://www.w3.org/Graphics/SVG/1.1/DTD/svg11.dtd">
<svg version="1.1" xmlns="http://www.w3.org/2000/svg" xmlns:xlink="http://www.w3.org/1999/xlink" width="32" height="32" viewBox="0 0 32 32">
<path fill="#535171" d="M2.5 11c-0.552 0-1 0.448-1 1v3c0 0.552 0.448 1 1 1s1-0.448 1-1v-3c0-0.552-0.448-1-1-1z"></path>
<path fill="#535171" d="M29.5 11c-0.552 0-1 0.448-1 1v3c0 0.552 0.448 1 1 1s1-0.448 1-1v-3c0-0.552-0.448-1-1-1z"></path>
<path fill="#535171" d="M26 5h-20c-1.104 0-2 0.896-2 2v21c0 0.552 0.448 1 1 1h1v2c0 0.552 0.448 1 1 1h2c0.552 0 1-0.448 1-1v-2h12v2c0 0.552 0.448 1 1 1h2c0.552 0 1-0.448 1-1v-2h1c0.552 0 1-0.448 1-1v-21c0-1.104-0.896-2-2-2zM7.5 27c-0.828 0-1.5-0.672-1.5-1.5s0.672-1.5 1.5-1.5 1.5 0.672 1.5 1.5-0.672 1.5-1.5 1.5zM15 22h-9v-11h9v11zM24.5 27c-0.828 0-1.5-0.672-1.5-1.5s0.672-1.5 1.5-1.5 1.5 0.672 1.5 1.5-0.672 1.5-1.5 1.5zM26 22h-9v-11h9v11zM26 9h-20v-2h20v2z"></path>
</svg>
