<?xml version="1.0" encoding="utf-8"?>
<!-- Generated by IcoMoon.io -->
<!DOCTYPE svg PUBLIC "-//W3C//DTD SVG 1.1//EN" "http://www.w3.org/Graphics/SVG/1.1/DTD/svg11.dtd">
<svg version="1.1" xmlns="http://www.w3.org/2000/svg" xmlns:xlink="http://www.w3.org/1999/xlink" width="32" height="32" viewBox="0 0 32 32">
<path fill="#535171" d="M24.728 7.917c0-1.059-0.859-1.917-1.917-1.917h-4.208l2.078-3.599c0.26 0.254 0.422 0.607 0.422 0.999h2c0-1.875-1.525-3.4-3.399-3.4h-7.2c-1.875 0-3.4 1.525-3.4 3.4h2c0-0.391 0.162-0.745 0.422-0.999l2.077 3.599h-4.209c-1.058 0-1.916 0.858-1.916 1.917l-0.959 19.166c0 1.059 0.858 1.917 1.917 1.917h15.333c1.059 0 1.917-0.858 1.917-1.917l-0.958-19.166zM13.603 2h5l-2.31 4h-0.381l-2.309-4zM22.811 7.917l0.104 2.083h-13.625l0.104-2.083h13.417zM23.513 22h-14.821l0.498-10h13.824l0.499 10zM9.603 27c-0.828 0-1.5-0.672-1.5-1.5s0.672-1.5 1.5-1.5 1.5 0.672 1.5 1.5-0.672 1.5-1.5 1.5zM22.603 27c-0.828 0-1.5-0.672-1.5-1.5s0.672-1.5 1.5-1.5 1.5 0.672 1.5 1.5-0.672 1.5-1.5 1.5z"></path>
<path fill="#535171" d="M20.391 30l1.155 2h2.31l-1.154-2z"></path>
<path fill="#535171" d="M8.683 32h2.31l1.154-2h-2.31z"></path>
</svg>
